<mxfile host="app.diagrams.net" modified="2024-06-01T07:55:11.247Z" agent="Mozilla/5.0 (Macintosh; Intel Mac OS X 10_15_7) AppleWebKit/537.36 (KHTML, like Gecko) Chrome/125.0.0.0 Safari/537.36" version="24.4.9" etag="Zll3lXq537Gb8tNaHh6-" type="github">
  <diagram name="第 1 页" id="BOSrEdx9LPeNz9r97gzJ">
    <mxGraphModel>
      <root>
        <mxCell id="0" />
        <mxCell id="1" parent="0" />
      </root>
    </mxGraphModel>
  </diagram>
</mxfile>
